<svg width="24" height="24" viewBox="0 0 24 24" fill="none" xmlns="http://www.w3.org/2000/svg">
  <rect width="24" height="24" rx="4" fill="#3366FF" />
  <path d="M8 7H12C14.2091 7 16 8.79086 16 11C16 13.2091 14.2091 15 12 15H8V7Z" fill="white" />
  <path d="M10.1 17H7.9C7.40294 17 7 16.5971 7 16.1V15.1C7 14.6029 7.40294 14.2 7.9 14.2H10.1C10.5971 14.2 11 14.6029 11 15.1V16.1C11 16.5971 10.5971 17 10.1 17Z" fill="white" />
  <path d="M13 11H16.1C16.5971 11 17 11.4029 17 11.9V12.1C17 12.5971 16.5971 13 16.1 13H13C12.5029 13 12.1 12.5971 12.1 12.1V11.9C12.1 11.4029 12.5029 11 13 11Z" fill="white" />
</svg>